<svg xmlns="http://www.w3.org/2000/svg" viewBox="0 0 64 64" fill="none" stroke="currentColor" stroke-width="1.5">
  
  <path d="M32 3 L57 17 L57 47 L32 61 L7 47 L7 17 Z" stroke-width="1.5"></path>
  
  <path d="M32 12 L49 22 L49 42 L32 52 L15 42 L15 22 Z" stroke-width="1" opacity="0.4"></path>
  
  <path d="M15 32 L22 32 L24 30 L28 30" stroke-width="1.5"></path>
  <path d="M36 30 L40 30 L42 32 L49 32" stroke-width="1.5"></path>
  
  <path d="M32 20 C32 20, 26 28, 26 34 C26 38.5 28.7 41 32 41 C35.3 41 38 38.5 38 34 C38 28 32 20 32 20 Z" stroke-width="1.5"></path>
  
  <path d="M32 28 L30 33 L33 33 L31 38" stroke-width="1.2" stroke-linecap="round" stroke-linejoin="round"></path>
  
  <path d="M7 17 L7 13 M7 17 L11 17" stroke-width="1"></path>
  <path d="M57 17 L57 13 M57 17 L53 17" stroke-width="1"></path>
  <path d="M7 47 L7 51 M7 47 L11 47" stroke-width="1"></path>
  <path d="M57 47 L57 51 M57 47 L53 47" stroke-width="1"></path>
</svg>